<svg xmlns="http://www.w3.org/2000/svg" viewBox="0 0 512 512" width="512" height="512">
  <defs>
    <linearGradient id="bg-grad" x1="0%" y1="0%" x2="100%" y2="100%">
      <stop offset="0%" stop-color="#2563EB" />
      <stop offset="100%" stop-color="#1D4ED8" />
    </linearGradient>
  </defs>
  <!-- Background Rounded Rect -->
  <rect x="16" y="16" width="480" height="480" rx="100" fill="url(#bg-grad)" />
  
  <!-- "68" Geometric Representation -->
  <g fill="#FFFFFF">
    <!-- "6" Bottom Circle -->
    <path d="M 195 389 C 235.87 389, 269 355.87, 269 315 C 269 274.13, 235.87 241, 195 241 C 154.13 241, 121 274.13, 121 315 C 121 355.87, 154.13 389, 195 389 Z M 195 351 C 175.12 351, 159 334.88, 159 315 C 159 295.12, 175.12 279, 195 279 C 214.88 279, 231 295.12, 231 315 C 231 334.88, 214.88 351, 195 351 Z" />
    
    <!-- "6" Neck Sweep -->
    <path d="M 121 315 C 121 215, 202 134, 302 134 C 309 134, 315 140, 315 147 C 315 154, 309 160, 302 160 C 216.4 160, 147 229.4, 147 315 C 147 322, 141 328, 134 328 C 127 328, 121 322, 121 315 Z" />

    <!-- "8" Top Circle -->
    <path d="M 315 257 C 349.24 257, 377 229.24, 377 195 C 377 160.76, 349.24 133, 315 133 C 280.76 133, 253 160.76, 253 195 C 253 229.24, 280.76 257, 315 257 Z M 315 225 C 298.43 225, 285 211.57, 285 195 C 285 178.43, 298.43 165, 315 165 C 331.57 165, 345 178.43, 345 195 C 345 211.57, 331.57 225, 315 225 Z" />

    <!-- "8" Bottom Circle -->
    <path d="M 315 389 C 355.87 389, 389 355.87, 389 315 C 389 274.13, 355.87 241, 315 241 C 274.13 241, 241 274.13, 241 315 C 241 355.87, 274.13 389, 315 389 Z M 315 351 C 295.12 351, 279 334.88, 279 315 C 279 295.12, 295.12 279, 315 279 C 334.88 279, 351 295.12, 351 315 C 351 334.88, 334.88 351, 315 351 Z" />
  </g>
</svg>
